<svg xmlns="http://www.w3.org/2000/svg" viewBox="0 0 40 40"><g fill="none" stroke="#331e11" stroke-miterlimit="10" stroke-width="1.5"><path data-name="Path 4504" d="M32.73 18.78c-.84 0-2.23-.07-2.23-.07s-.6 2.08-1.21 3.11a7.5 7.5 0 01-2.14 2.29c-.41.3-1.62 1.25-1.62 1.25l-.42 9a.66.66 0 01-.67.62h-.87a.66.66 0 01-.66-.62s-.23-6.79-.31-7.59-9.31-.76-9.49.33a4 4 0 00-.11.47v.09l-.06 6.69a.67.67 0 01-.67.63h-.87a.66.66 0 01-.67-.62s-.54-6.54-.58-7.21a24.53 24.53 0 00-.41-2.47l-.54-2c-.12.4-1.15 1.21-1.15 1.21a5.52 5.52 0 01-1.43.63c.32-.43.92-1.46 1.23-2a6.07 6.07 0 00.34-.73c0-.12.09-.23.13-.34s.37-1.14.5-1.4a4.16 4.16 0 011.24-1.3 7.64 7.64 0 013.09-.61c.7 0 1.17.05 2.47.05 2 0 3.06 0 4.28.09a51 51 0 005.3-.09c.36 0 1.1-1 1.32-1.28.44-.56.87-1.53 1.28-2.11.88-1.22 3.26-.94 4.37-.18a19.11 19.11 0 012 1.72 1.36 1.36 0 01.14 1.91c-.41.48-.74.54-1.58.53z" stroke-linejoin="round" stroke-linecap="round"/><path d="M29.73 3.28S30.1 7 30.1 9a12.32 12.32 0 01-.91 4.15s-2.06-2.32-2.9-3.42S24 3 24 3m-.63 7.64a20.81 20.81 0 004.52 1.06m-7.11-6.79a30.26 30.26 0 004.92 3.67m6.72-3.67A9.37 9.37 0 0130.1 9"/></g></svg>
