<svg xmlns="http://www.w3.org/2000/svg" viewBox="0 0 32 32"><title>coins</title><g class="nc-icon-wrapper" stroke-linecap="square" stroke-linejoin="miter" stroke-width="1.5" fill="#331e11" stroke="#331e11"><path data-cap="butt" fill="none" stroke="#331e11" stroke-miterlimit="10" d="M1,5v4c0,1.657,2.686,3,6,3 s6-1.343,6-3V5" stroke-linecap="butt"/> <path data-cap="butt" fill="none" stroke="#331e11" stroke-miterlimit="10" d="M1,9v4c0,1.657,2.686,3,6,3 s6-1.343,6-3V9" stroke-linecap="butt"/> <line data-cap="butt" fill="none" stroke="#331e11" stroke-miterlimit="10" x1="13" y1="16.401" x2="13" y2="13" stroke-linecap="butt"/> <path data-cap="butt" fill="none" stroke="#331e11" stroke-miterlimit="10" d="M1,13v4c0,1.657,2.686,3,6,3 c1.093,0,2.117-0.147,3-0.402" stroke-linecap="butt"/> <path data-cap="butt" fill="none" stroke="#331e11" stroke-miterlimit="10" d="M1,17v4c0,1.657,2.686,3,6,3 c1.093,0,2.118-0.147,3-0.402" stroke-linecap="butt"/> <ellipse fill="none" stroke="#331e11" stroke-miterlimit="10" cx="7" cy="5" rx="6" ry="3"/> <path data-cap="butt" fill="none" stroke="#331e11" stroke-miterlimit="10" d="M19,9v4c0,1.657,2.686,3,6,3 s6-1.343,6-3V9" stroke-linecap="butt"/> <path data-cap="butt" fill="none" stroke="#331e11" stroke-miterlimit="10" d="M22,19.594 C22.883,19.85,23.906,20,25,20c3.314,0,6-1.343,6-3v-4" stroke-linecap="butt"/> <line data-cap="butt" fill="none" stroke="#331e11" stroke-miterlimit="10" x1="19" y1="13" x2="19" y2="16.401" stroke-linecap="butt"/> <path data-cap="butt" fill="none" stroke="#331e11" stroke-miterlimit="10" d="M22,23.596 C22.883,23.851,23.907,24,25,24c3.314,0,6-1.343,6-3v-4" stroke-linecap="butt"/> <ellipse fill="none" stroke="#331e11" stroke-miterlimit="10" cx="25" cy="9" rx="6" ry="3"/> <path data-cap="butt" data-color="color-2" fill="none" stroke-miterlimit="10" d="M10,19v4c0,1.657,2.686,3,6,3 s6-1.343,6-3v-4" stroke-linecap="butt"/> <path data-cap="butt" data-color="color-2" fill="none" stroke-miterlimit="10" d="M10,23v4c0,1.657,2.686,3,6,3 s6-1.343,6-3v-4" stroke-linecap="butt"/> <ellipse data-color="color-2" fill="none" stroke-miterlimit="10" cx="16" cy="19" rx="6" ry="3"/></g></svg>