<svg id="Artwork" xmlns="http://www.w3.org/2000/svg" viewBox="0 0 32 32"><title>deductible</title><g class="nc-icon-wrapper" fill="#331e11"><defs/><path d="M20.185 6.135v5.728c0 2.373-3.847 4.3-8.593 4.3S3 14.236 3 11.863V6.135" fill="none" stroke="#331e11" stroke-miterlimit="10" stroke-width="1.5px"/><path d="M14.3 21.976h-2.71C6.847 21.976 3 20.053 3 17.68v-5.728" fill="none" stroke="#331e11" stroke-miterlimit="10" stroke-width="1.5px"/><path d="M20.185 11.43v5.209" fill="none" stroke="#331e11" stroke-miterlimit="10" stroke-width="1.5px"/><path d="M14.793 27.793h-3.2C6.847 27.793 3 25.87 3 23.5v-5.731" fill="none" stroke="#331e11" stroke-miterlimit="10" stroke-width="1.5px"/><path class="cls-2" d="M3 6.046C3 7.581 4.638 9 7.3 9.767a16.329 16.329 0 0 0 8.592 0c2.659-.768 4.3-2.186 4.3-3.721s-1.638-2.953-4.3-3.72a16.308 16.308 0 0 0-8.592 0C4.638 3.093 3 4.511 3 6.046z" fill="none" stroke="#331e11" stroke-miterlimit="10" stroke-width="1.5px" stroke-linecap="square"/><path class="cls-2" d="M21.138 24.353h3.931" fill="none" stroke="#331e11" stroke-miterlimit="10" stroke-width="1.5px" stroke-linecap="square"/><path class="cls-2" d="M29 24.353a5.9 5.9 0 1 1-2.949-5.106A5.9 5.9 0 0 1 29 24.353z" fill="none" stroke="#331e11" stroke-miterlimit="10" stroke-width="1.5px" stroke-linecap="square"/><path class="cls-3" d="M0 0h32v32H0z" style="" fill="none"/></g></svg>