<svg xmlns="http://www.w3.org/2000/svg" viewBox="0 0 32 32"><title>heartbeat</title><g class="nc-icon-wrapper" stroke-linecap="square" stroke-linejoin="miter" stroke-width="1.5" fill="#331e11" stroke="#331e11"><path d="M29.85,12a7.465,7.465,0,0,0,.116-1.272A7.6,7.6,0,0,0,16,6.445,7.729,7.729,0,0,0,9.669,3a7.69,7.69,0,0,0-7.635,7.728A7.465,7.465,0,0,0,2.15,12" fill="none" stroke="#331e11" stroke-miterlimit="10"/> <path d="M6.283,20A71.434,71.434,0,0,0,16,30a71.369,71.369,0,0,0,9.717-10" fill="none" stroke="#331e11" stroke-miterlimit="10"/> <polyline data-color="color-2" points="1 16 10 16 13 11 19 20 22 16 31 16" fill="none" stroke-miterlimit="10"/></g></svg>