<svg xmlns="http://www.w3.org/2000/svg" viewBox="0 0 32 32"><title>b love</title><g class="nc-icon-wrapper" stroke-linecap="square" stroke-linejoin="miter" stroke-width="1.5" fill="#331e11" stroke="#331e11"><path data-color="color-2" fill="none" stroke-miterlimit="10" d=" M21.041,2.992C19.582,1.481,17.146,1.728,16,3.515c-1.147-1.789-3.583-2.032-5.041-0.523c-1.278,1.323-1.278,3.467,0,4.79L15.999,13 l5.042-5.218C22.32,6.459,22.32,4.315,21.041,2.992z"/> <circle fill="none" stroke="#331e11" stroke-miterlimit="10" cx="25" cy="18" r="3"/> <circle fill="none" stroke="#331e11" stroke-miterlimit="10" cx="7" cy="18" r="3"/> <path fill="none" stroke="#331e11" stroke-miterlimit="10" d="M13,30v-2.983 c0-0.71-0.372-1.363-0.983-1.725C11.044,24.717,9.358,24,7,24c-2.388,0-4.064,0.713-5.026,1.288C1.368,25.65,1,26.301,1,27.007V30 H13z"/> <path fill="none" stroke="#331e11" stroke-miterlimit="10" d="M31,30v-2.983 c0-0.71-0.372-1.363-0.983-1.725C29.044,24.717,27.358,24,25,24c-2.388,0-4.064,0.713-5.026,1.288C19.368,25.65,19,26.301,19,27.007 V30H31z"/></g></svg>