<?xml version="1.0" standalone="no"?>
<!DOCTYPE svg PUBLIC "-//W3C//DTD SVG 20010904//EN"
 "http://www.w3.org/TR/2001/REC-SVG-20010904/DTD/svg10.dtd">
<svg version="1.0" xmlns="http://www.w3.org/2000/svg"
 width="3070.000000pt" height="354.000000pt" viewBox="0 0 3070.000000 354.000000"
 preserveAspectRatio="xMidYMid meet">

<g transform="translate(0.000000,354.000000) scale(0.100000,-0.100000)"
fill="#000000" stroke="none">
<path d="M8100 3533 c-412 -31 -840 -141 -1135 -292 -514 -264 -808 -679 -876
-1234 -18 -148 -7 -474 20 -610 80 -398 270 -699 595 -941 296 -221 698 -366
1201 -433 186 -25 687 -24 870 0 476 66 853 196 1154 400 127 86 322 276 399
389 184 270 272 583 272 963 -1 602 -241 1061 -715 1368 -391 252 -978 401
-1565 395 -96 -1 -195 -3 -220 -5z m380 -479 c30 -10 89 -41 130 -69 216 -147
349 -440 402 -890 19 -161 16 -562 -5 -705 -55 -376 -180 -624 -381 -758 -350
-234 -764 -29 -933 463 -126 367 -133 960 -18 1361 33 111 101 257 159 338 92
129 234 233 367 271 69 19 205 14 279 -11z"/>
<path d="M0 3140 l0 -260 368 0 367 0 58 -102 c31 -57 90 -161 130 -233 120
-212 1047 -1857 1210 -2148 l151 -267 877 0 878 0 34 63 c19 34 192 357 385
717 510 955 560 1048 717 1340 78 146 186 347 239 448 l98 182 404 0 404 0 0
260 0 260 -1155 0 -1155 0 0 -260 0 -260 280 -2 279 -3 -262 -500 c-328 -625
-386 -734 -565 -1075 -79 -151 -145 -276 -147 -278 -3 -3 -71 119 -624 1120
-220 400 -401 729 -401 732 0 4 171 6 380 6 l380 0 0 260 0 260 -1665 0 -1665
0 0 -260z"/>
<path d="M10770 3135 l0 -265 355 0 355 0 0 -1105 0 -1105 -365 0 -365 0 0
-265 0 -265 2280 0 2280 0 0 770 0 770 -284 0 -284 0 -7 -42 c-72 -479 -270
-781 -579 -886 l-81 -27 -517 -3 -518 -3 0 1081 0 1080 375 0 375 0 0 265 0
265 -1510 0 -1510 0 0 -265z"/>
<path d="M14500 3135 l0 -265 369 0 369 0 122 -217 c319 -565 533 -944 840
-1488 183 -324 369 -655 414 -735 46 -80 102 -180 126 -223 l44 -77 879 2 879
3 172 320 c94 176 265 493 378 705 114 212 366 682 561 1045 l354 660 407 3
406 2 0 265 0 265 -1155 0 -1155 0 0 -265 0 -265 281 0 281 0 -35 -62 c-19
-35 -69 -130 -112 -213 -43 -82 -90 -172 -105 -200 -15 -27 -57 -106 -93 -175
-139 -266 -629 -1195 -632 -1198 -3 -3 -181 317 -934 1678 l-91 165 380 3 380
2 0 265 0 265 -1665 0 -1665 0 0 -265z"/>
<path d="M21070 3135 l0 -265 355 0 355 0 0 -1110 0 -1110 -360 0 -360 0 0
-260 0 -260 1530 0 1530 0 0 260 0 260 -385 0 -385 0 0 1110 0 1110 375 0 375
0 0 265 0 265 -1515 0 -1515 0 0 -265z"/>
<path d="M26631 3338 c-62 -115 -542 -1009 -683 -1273 -178 -330 -156 -288
-483 -898 l-277 -517 -404 0 -404 0 0 -265 0 -265 1155 0 1155 0 0 265 0 265
-275 0 c-213 0 -275 3 -275 13 0 6 46 100 103 207 l102 195 784 0 785 0 108
-200 c59 -110 108 -203 108 -207 0 -5 -171 -8 -380 -8 l-380 0 2 -262 3 -263
1663 -3 1662 -2 0 265 0 265 -367 0 -368 0 -131 233 c-261 463 -1145 2028
-1280 2267 l-139 245 -876 3 -875 2 -33 -62z m714 -1251 c120 -210 226 -391
236 -403 11 -11 19 -23 19 -27 0 -4 -214 -7 -476 -7 -449 0 -476 1 -470 18 6
14 313 585 378 700 10 17 30 55 44 84 24 47 28 50 39 35 7 -10 111 -190 230
-400z"/>
</g>
</svg>
